# xmcd
#
# Track frame offsets:
#	150
#	14782
#	29595
#	46257
#	58280
#	69417
#	84002
#	96087
#	109295
#	125380
#	137780
#	150492
#	162532
#
# Disc length: 2328 seconds
#
# Revision: 2
# Processed by: cddbd v1.4PL0 Copyright (c) Steve Scherf et al.
# Submitted via: CDmax 1.9
#
DISCID=b009160d
DTITLE=Bill Kirchen - Tombstone Every Mile
DYEAR=1994
DGENRE=Blues
TTITLE0=Bottle Baby Boogie
TTITLE1=Tombstone Every Mile
TTITLE2=Rockabilly Funeral
TTITLE3=Fool on a Stool
TTITLE4=One Woman Man
TTITLE5=Lovin' Cajun Style
TTITLE6=Think It Over
TTITLE7=Lover's Rock
TTITLE8=Cool Lovin' Baby
TTITLE9=Secrets of Love
TTITLE10=Tell Me The Reason
TTITLE11=Without Love
TTITLE12=All Tore Up
EXTD=
EXTT0=
EXTT1=
EXTT2=
EXTT3=
EXTT4=
EXTT5=
EXTT6=
EXTT7=
EXTT8=
EXTT9=
EXTT10=
EXTT11=
EXTT12=
PLAYORDER=
